<svg width="232" height="95" viewBox="0 0 232 95" fill="none" xmlns="http://www.w3.org/2000/svg">
<rect x="10.7703" y="14.8868" width="51.4593" height="51.4593" rx="25.7297" stroke="#155A5A" stroke-width="1.5407"/>
<rect x="23.3094" y="27.4246" width="26.3813" height="26.3813" rx="13.1906" fill="#155A5A"/>
<rect x="13.2977" y="13.7082" width="14.0151" height="14.0151" rx="7.00753" fill="#155A5A"/>
<rect x="13.2977" y="13.7082" width="14.0151" height="14.0151" rx="7.00753" stroke="#E0F6F6" stroke-width="4.12208"/>
<path d="M83.016 33.336H88.536V36H79.656V19.248H83.016V33.336ZM96.5756 36.216C95.2956 36.216 94.1436 35.936 93.1196 35.376C92.0956 34.8 91.2876 33.992 90.6956 32.952C90.1196 31.912 89.8316 30.712 89.8316 29.352C89.8316 27.992 90.1276 26.792 90.7196 25.752C91.3276 24.712 92.1516 23.912 93.1916 23.352C94.2316 22.776 95.3916 22.488 96.6716 22.488C97.9516 22.488 99.1116 22.776 100.152 23.352C101.192 23.912 102.008 24.712 102.6 25.752C103.208 26.792 103.512 27.992 103.512 29.352C103.512 30.712 103.2 31.912 102.576 32.952C101.968 33.992 101.136 34.8 100.08 35.376C99.0396 35.936 97.8716 36.216 96.5756 36.216ZM96.5756 33.288C97.1836 33.288 97.7516 33.144 98.2796 32.856C98.8236 32.552 99.2556 32.104 99.5756 31.512C99.8956 30.92 100.056 30.2 100.056 29.352C100.056 28.088 99.7196 27.12 99.0476 26.448C98.3916 25.76 97.5836 25.416 96.6236 25.416C95.6636 25.416 94.8556 25.76 94.1996 26.448C93.5596 27.12 93.2396 28.088 93.2396 29.352C93.2396 30.616 93.5516 31.592 94.1756 32.28C94.8156 32.952 95.6156 33.288 96.5756 33.288ZM113.344 22.512C114.928 22.512 116.208 23.016 117.184 24.024C118.16 25.016 118.648 26.408 118.648 28.2V36H115.288V28.656C115.288 27.6 115.024 26.792 114.496 26.232C113.968 25.656 113.248 25.368 112.336 25.368C111.408 25.368 110.672 25.656 110.128 26.232C109.6 26.792 109.336 27.6 109.336 28.656V36H105.976V22.704H109.336V24.36C109.784 23.784 110.352 23.336 111.04 23.016C111.744 22.68 112.512 22.512 113.344 22.512ZM127.052 22.488C128.044 22.488 128.916 22.688 129.668 23.088C130.42 23.472 131.012 23.976 131.444 24.6V22.704H134.828V36.096C134.828 37.328 134.58 38.424 134.084 39.384C133.588 40.36 132.844 41.128 131.852 41.688C130.86 42.264 129.66 42.552 128.252 42.552C126.364 42.552 124.812 42.112 123.596 41.232C122.396 40.352 121.716 39.152 121.556 37.632H124.892C125.068 38.24 125.444 38.72 126.02 39.072C126.612 39.44 127.324 39.624 128.156 39.624C129.132 39.624 129.924 39.328 130.532 38.736C131.14 38.16 131.444 37.28 131.444 36.096V34.032C131.012 34.656 130.412 35.176 129.644 35.592C128.892 36.008 128.028 36.216 127.052 36.216C125.932 36.216 124.908 35.928 123.98 35.352C123.052 34.776 122.316 33.968 121.771 32.928C121.243 31.872 120.979 30.664 120.979 29.304C120.979 27.96 121.243 26.768 121.771 25.728C122.316 24.688 123.044 23.888 123.956 23.328C124.884 22.768 125.916 22.488 127.052 22.488ZM131.444 29.352C131.444 28.536 131.284 27.84 130.964 27.264C130.644 26.672 130.212 26.224 129.668 25.92C129.124 25.6 128.54 25.44 127.916 25.44C127.292 25.44 126.716 25.592 126.188 25.896C125.66 26.2 125.228 26.648 124.892 27.24C124.572 27.816 124.412 28.504 124.412 29.304C124.412 30.104 124.572 30.808 124.892 31.416C125.228 32.008 125.66 32.464 126.188 32.784C126.732 33.104 127.308 33.264 127.916 33.264C128.54 33.264 129.124 33.112 129.668 32.808C130.212 32.488 130.644 32.04 130.964 31.464C131.284 30.872 131.444 30.168 131.444 29.352ZM150.469 29.064C150.469 29.544 150.437 29.976 150.373 30.36H140.653C140.733 31.32 141.069 32.072 141.661 32.616C142.253 33.16 142.981 33.432 143.845 33.432C145.093 33.432 145.981 32.896 146.509 31.824H150.133C149.749 33.104 149.013 34.16 147.925 34.992C146.837 35.808 145.501 36.216 143.917 36.216C142.637 36.216 141.485 35.936 140.461 35.376C139.453 34.8 138.661 33.992 138.085 32.952C137.525 31.912 137.245 30.712 137.245 29.352C137.245 27.976 137.525 26.768 138.085 25.728C138.645 24.688 139.429 23.888 140.437 23.328C141.445 22.768 142.605 22.488 143.917 22.488C145.181 22.488 146.309 22.76 147.301 23.304C148.309 23.848 149.085 24.624 149.629 25.632C150.189 26.624 150.469 27.768 150.469 29.064ZM146.989 28.104C146.973 27.24 146.661 26.552 146.053 26.04C145.445 25.512 144.701 25.248 143.821 25.248C142.989 25.248 142.285 25.504 141.709 26.016C141.149 26.512 140.805 27.208 140.677 28.104H146.989ZM158.466 32.904L161.826 22.704H165.402L160.482 36H156.402L151.506 22.704H155.106L158.466 32.904ZM168.993 21.12C168.401 21.12 167.905 20.936 167.505 20.568C167.121 20.184 166.929 19.712 166.929 19.152C166.929 18.592 167.121 18.128 167.505 17.76C167.905 17.376 168.401 17.184 168.993 17.184C169.585 17.184 170.073 17.376 170.457 17.76C170.857 18.128 171.057 18.592 171.057 19.152C171.057 19.712 170.857 20.184 170.457 20.568C170.073 20.936 169.585 21.12 168.993 21.12ZM170.649 22.704V36H167.289V22.704H170.649ZM177.881 25.464V31.896C177.881 32.344 177.985 32.672 178.193 32.88C178.417 33.072 178.785 33.168 179.297 33.168H180.857V36H178.745C175.913 36 174.497 34.624 174.497 31.872V25.464H172.913V22.704H174.497V19.416H177.881V22.704H180.857V25.464H177.881ZM195.993 22.704L187.761 42.288H184.185L187.065 35.664L181.737 22.704H185.505L188.937 31.992L192.417 22.704H195.993ZM208.076 32.808H201.404L200.3 36H196.772L202.796 19.224H206.708L212.732 36H209.18L208.076 32.808ZM207.164 30.12L204.74 23.112L202.316 30.12H207.164ZM218.344 19.248V36H214.984V19.248H218.344Z" fill="#155A5A"/>
<path d="M82.592 52.816C83.8293 52.816 84.8907 53.04 85.776 53.488C86.6613 53.936 87.3387 54.5813 87.808 55.424C88.2773 56.2667 88.512 57.2693 88.512 58.432C88.512 59.584 88.2773 60.5813 87.808 61.424C87.3387 62.256 86.6613 62.896 85.776 63.344C84.8907 63.7813 83.8293 64 82.592 64H79.28V52.816H82.592ZM82.592 63.072C84.1493 63.072 85.3333 62.6667 86.144 61.856C86.9653 61.0347 87.376 59.8933 87.376 58.432C87.376 56.96 86.9653 55.8133 86.144 54.992C85.3333 54.16 84.1493 53.744 82.592 53.744H80.4V63.072H82.592ZM90.0649 59.616C90.0649 58.72 90.2409 57.936 90.5929 57.264C90.9555 56.5813 91.4515 56.0587 92.0809 55.696C92.7209 55.3227 93.4409 55.136 94.2409 55.136C95.0729 55.136 95.7875 55.328 96.3849 55.712C96.9929 56.096 97.4302 56.5867 97.6969 57.184V55.264H98.8169V64H97.6969V62.064C97.4195 62.6613 96.9769 63.1573 96.3689 63.552C95.7715 63.936 95.0569 64.128 94.2249 64.128C93.4355 64.128 92.7209 63.9413 92.0809 63.568C91.4515 63.1947 90.9555 62.6667 90.5929 61.984C90.2409 61.3013 90.0649 60.512 90.0649 59.616ZM97.6969 59.632C97.6969 58.928 97.5529 58.3093 97.2649 57.776C96.9769 57.2427 96.5822 56.832 96.0809 56.544C95.5902 56.256 95.0462 56.112 94.4489 56.112C93.8302 56.112 93.2755 56.2507 92.7849 56.528C92.2942 56.8053 91.9049 57.2107 91.6169 57.744C91.3395 58.2667 91.2009 58.8907 91.2009 59.616C91.2009 60.3307 91.3395 60.96 91.6169 61.504C91.9049 62.0373 92.2942 62.448 92.7849 62.736C93.2755 63.0133 93.8302 63.152 94.4489 63.152C95.0462 63.152 95.5902 63.008 96.0809 62.72C96.5822 62.432 96.9769 62.0213 97.2649 61.488C97.5529 60.9547 97.6969 60.336 97.6969 59.632ZM104.382 64.128C103.379 64.128 102.558 63.8987 101.918 63.44C101.288 62.9707 100.936 62.336 100.862 61.536H102.014C102.067 62.0267 102.296 62.4267 102.702 62.736C103.118 63.0347 103.672 63.184 104.366 63.184C104.974 63.184 105.448 63.04 105.79 62.752C106.142 62.464 106.318 62.1067 106.318 61.68C106.318 61.3813 106.222 61.136 106.03 60.944C105.838 60.752 105.592 60.6027 105.294 60.496C105.006 60.3787 104.611 60.256 104.11 60.128C103.459 59.9573 102.931 59.7867 102.526 59.616C102.12 59.4453 101.774 59.1947 101.486 58.864C101.208 58.5227 101.07 58.0693 101.07 57.504C101.07 57.0773 101.198 56.6827 101.454 56.32C101.71 55.9573 102.072 55.6693 102.542 55.456C103.011 55.2427 103.544 55.136 104.142 55.136C105.08 55.136 105.838 55.376 106.414 55.856C106.99 56.3253 107.299 56.976 107.342 57.808H106.222C106.19 57.296 105.987 56.8853 105.614 56.576C105.251 56.256 104.75 56.096 104.11 56.096C103.544 56.096 103.086 56.2293 102.734 56.496C102.382 56.7627 102.206 57.0933 102.206 57.488C102.206 57.8293 102.307 58.112 102.51 58.336C102.723 58.5493 102.984 58.72 103.294 58.848C103.603 58.9653 104.019 59.0987 104.542 59.248C105.171 59.4187 105.672 59.584 106.046 59.744C106.419 59.904 106.739 60.1387 107.006 60.448C107.272 60.7573 107.411 61.168 107.422 61.68C107.422 62.1493 107.294 62.5707 107.038 62.944C106.782 63.3067 106.424 63.5947 105.966 63.808C105.507 64.0213 104.979 64.128 104.382 64.128ZM113.69 55.104C114.351 55.104 114.943 55.2427 115.466 55.52C115.999 55.7973 116.415 56.224 116.714 56.8C117.023 57.3653 117.178 58.0587 117.178 58.88V64H116.074V59.008C116.074 58.0587 115.834 57.3333 115.354 56.832C114.885 56.3307 114.239 56.08 113.418 56.08C112.575 56.08 111.903 56.3467 111.402 56.88C110.901 57.4133 110.65 58.1973 110.65 59.232V64H109.53V52.16H110.65V56.752C110.927 56.2293 111.333 55.824 111.866 55.536C112.41 55.248 113.018 55.104 113.69 55.104ZM120.759 57.2C121.047 56.592 121.49 56.096 122.087 55.712C122.695 55.328 123.41 55.136 124.231 55.136C125.031 55.136 125.746 55.3227 126.375 55.696C127.004 56.0587 127.495 56.5813 127.847 57.264C128.21 57.936 128.391 58.72 128.391 59.616C128.391 60.512 128.21 61.3013 127.847 61.984C127.495 62.6667 126.999 63.1947 126.359 63.568C125.73 63.9413 125.02 64.128 124.231 64.128C123.399 64.128 122.679 63.9413 122.071 63.568C121.474 63.184 121.036 62.688 120.759 62.08V64H119.655V52.16H120.759V57.2ZM127.255 59.616C127.255 58.8907 127.111 58.2667 126.823 57.744C126.546 57.2107 126.162 56.8053 125.671 56.528C125.18 56.2507 124.626 56.112 124.007 56.112C123.41 56.112 122.86 56.256 122.359 56.544C121.868 56.832 121.479 57.2427 121.191 57.776C120.903 58.3093 120.759 58.928 120.759 59.632C120.759 60.336 120.903 60.9547 121.191 61.488C121.479 62.0213 121.868 62.432 122.359 62.72C122.86 63.008 123.41 63.152 124.007 63.152C124.626 63.152 125.18 63.0133 125.671 62.736C126.162 62.448 126.546 62.0373 126.823 61.504C127.111 60.96 127.255 60.3307 127.255 59.616ZM134.276 64.128C133.455 64.128 132.713 63.9467 132.052 63.584C131.401 63.2107 130.884 62.688 130.5 62.016C130.127 61.3333 129.94 60.5387 129.94 59.632C129.94 58.7253 130.132 57.936 130.516 57.264C130.9 56.5813 131.423 56.0587 132.084 55.696C132.745 55.3227 133.487 55.136 134.308 55.136C135.129 55.136 135.871 55.3227 136.532 55.696C137.204 56.0587 137.727 56.5813 138.1 57.264C138.484 57.936 138.676 58.7253 138.676 59.632C138.676 60.528 138.484 61.3173 138.1 62C137.716 62.6827 137.188 63.2107 136.516 63.584C135.844 63.9467 135.097 64.128 134.276 64.128ZM134.276 63.152C134.852 63.152 135.385 63.024 135.876 62.768C136.367 62.5013 136.761 62.1067 137.06 61.584C137.369 61.0507 137.524 60.4 137.524 59.632C137.524 58.864 137.375 58.2187 137.076 57.696C136.777 57.1627 136.383 56.768 135.892 56.512C135.401 56.2453 134.868 56.112 134.292 56.112C133.716 56.112 133.183 56.2453 132.692 56.512C132.201 56.768 131.807 57.1627 131.508 57.696C131.22 58.2187 131.076 58.864 131.076 59.632C131.076 60.4 131.22 61.0507 131.508 61.584C131.807 62.1067 132.196 62.5013 132.676 62.768C133.167 63.024 133.7 63.152 134.276 63.152ZM140.206 59.616C140.206 58.72 140.382 57.936 140.734 57.264C141.096 56.5813 141.592 56.0587 142.222 55.696C142.862 55.3227 143.582 55.136 144.382 55.136C145.214 55.136 145.928 55.328 146.526 55.712C147.134 56.096 147.571 56.5867 147.838 57.184V55.264H148.958V64H147.838V62.064C147.56 62.6613 147.118 63.1573 146.51 63.552C145.912 63.936 145.198 64.128 144.366 64.128C143.576 64.128 142.862 63.9413 142.222 63.568C141.592 63.1947 141.096 62.6667 140.734 61.984C140.382 61.3013 140.206 60.512 140.206 59.616ZM147.838 59.632C147.838 58.928 147.694 58.3093 147.406 57.776C147.118 57.2427 146.723 56.832 146.222 56.544C145.731 56.256 145.187 56.112 144.59 56.112C143.971 56.112 143.416 56.2507 142.926 56.528C142.435 56.8053 142.046 57.2107 141.758 57.744C141.48 58.2667 141.342 58.8907 141.342 59.616C141.342 60.3307 141.48 60.96 141.758 61.504C142.046 62.0373 142.435 62.448 142.926 62.736C143.416 63.0133 143.971 63.152 144.59 63.152C145.187 63.152 145.731 63.008 146.222 62.72C146.723 62.432 147.118 62.0213 147.406 61.488C147.694 60.9547 147.838 60.336 147.838 59.632ZM152.634 56.816C152.88 56.272 153.253 55.8507 153.754 55.552C154.266 55.2533 154.89 55.104 155.626 55.104V56.272H155.322C154.512 56.272 153.861 56.4907 153.37 56.928C152.88 57.3653 152.634 58.096 152.634 59.12V64H151.514V55.264H152.634V56.816ZM156.799 59.616C156.799 58.72 156.981 57.936 157.343 57.264C157.706 56.5813 158.202 56.0587 158.831 55.696C159.471 55.3227 160.191 55.136 160.991 55.136C161.759 55.136 162.453 55.3227 163.071 55.696C163.69 56.0693 164.143 56.5547 164.431 57.152V52.16H165.551V64H164.431V62.048C164.165 62.656 163.727 63.1573 163.119 63.552C162.511 63.936 161.797 64.128 160.975 64.128C160.175 64.128 159.455 63.9413 158.815 63.568C158.186 63.1947 157.69 62.6667 157.327 61.984C156.975 61.3013 156.799 60.512 156.799 59.616ZM164.431 59.632C164.431 58.928 164.287 58.3093 163.999 57.776C163.711 57.2427 163.317 56.832 162.815 56.544C162.325 56.256 161.781 56.112 161.183 56.112C160.565 56.112 160.01 56.2507 159.519 56.528C159.029 56.8053 158.639 57.2107 158.351 57.744C158.074 58.2667 157.935 58.8907 157.935 59.616C157.935 60.3307 158.074 60.96 158.351 61.504C158.639 62.0373 159.029 62.448 159.519 62.736C160.01 63.0133 160.565 63.152 161.183 63.152C161.781 63.152 162.325 63.008 162.815 62.72C163.317 62.432 163.711 62.0213 163.999 61.488C164.287 60.9547 164.431 60.336 164.431 59.632Z" fill="#2C9393"/>
</svg>
