<svg width="32" height="32" viewBox="0 0 32 32" fill="none" xmlns="http://www.w3.org/2000/svg">
<g id="Icons">
<path id="Ellipse 69" d="M25.1221 23.3838C25.394 23.995 25.2637 24.5554 24.8586 25.0164C24.4289 25.5055 23.6893 25.8618 22.8536 25.8618H22.8104H22.7674H22.7245H22.6819H22.6394H22.597H22.5549H22.5129H22.4711H22.4295H22.388H22.3467H22.3056H22.2646H22.2239H22.1833H22.1428H22.1025H22.0624H22.0225H21.9827H21.9431H21.9036H21.8643H21.8252H21.7862H21.7474H21.7088H21.6703H21.632H21.5938H21.5558H21.5179H21.4802H21.4427H21.4053H21.3681H21.331H21.2941H21.2573H21.2207H21.1842H21.1479H21.1117H21.0757H21.0398H21.0041H20.9685H20.9331H20.8978H20.8626H20.8276H20.7928H20.7581H20.7235H20.6891H20.6548H20.6206H20.5866H20.5528H20.519H20.4854H20.452H20.4187H20.3855H20.3524H20.3195H20.2867H20.2541H20.2216H20.1892H20.1569H20.1248H20.0928H20.061H20.0292H19.9976H19.9661H19.9348H19.9036H19.8725H19.8415H19.8106H19.7799H19.7493H19.7188H19.6884H19.6582H19.628H19.598H19.5681H19.5384H19.5087H19.4792H19.4498H19.4204H19.3912H19.3622H19.3332H19.3043H19.2756H19.247H19.2184H19.19H19.1617H19.1335H19.1054H19.0775H19.0496H19.0218H18.9941H18.9666H18.9391H18.9118H18.8845H18.8574H18.8303H18.8034H18.7765H18.7498H18.7231H18.6966H18.6701H18.6437H18.6175H18.5913H18.5652H18.5392H18.5134H18.4876H18.4619H18.4362H18.4107H18.3853H18.3599H18.3347H18.3095H18.2844H18.2594H18.2345H18.2097H18.1849H18.1603H18.1357H18.1112H18.0868H18.0625H18.0382H18.0141H17.99H17.9659H17.942H17.9181H17.8944H17.8707H17.847H17.8235H17.8H17.7766H17.7532H17.73H17.7068H17.6836H17.6606H17.6376H17.6147H17.5918H17.569H17.5463H17.5237H17.5011H17.4786H17.4561H17.4337H17.4114H17.3891H17.3669H17.3447H17.3226H17.3006H17.2786H17.2567H17.2348H17.213H17.1913H17.1696H17.148H17.1264H17.1048H17.0834H17.0619H17.0405H17.0192H16.9979H16.9767H16.9555H16.9344H16.9133H16.8923H16.8713H16.8503H16.8294H16.8085H16.7877H16.7669H16.7462H16.7255H16.7049H16.6842H16.6637H16.6431H16.6226H16.6022H16.5817H16.5614H16.541H16.5207H16.5004H16.4801H16.4599H16.4397H16.4196H16.3994H16.3793H16.3593H16.3392H16.3192H16.2992H16.2792H16.2593H16.2394H16.2195H16.1996H16.1798H16.16H16.1402H16.1204H16.1006H16.0809H16.0612H16.0415H16.0218H16.0021H15.9825H15.9629H15.9432H15.9236H15.904H15.8845H15.8649H15.8453H15.8258H15.8063H15.7867H15.7672H15.7477H15.7282H15.7087H15.6893H15.6698H15.6503H15.6308H15.6114H15.5919H15.5724H15.553H15.5335H15.5141H15.4946H15.4751H15.4557H15.4362H15.4167H15.3973H15.3778H15.3583H15.3388H15.3193H15.2998H15.2803H15.2608H15.2413H15.2217H15.2022H15.1826H15.1631H15.1435H15.1239H15.1043H15.0847H15.065H15.0454H15.0257H15.006H14.9863H14.9666H14.9469H14.9271H14.9073H14.8875H14.8677H14.8478H14.828H14.8081H14.7881H14.7682H14.7482H14.7282H14.7082H14.6882H14.6681H14.648H14.6278H14.6077H14.5875H14.5672H14.547H14.5267H14.5063H14.486H14.4656H14.4451H14.4247H14.4042H14.3836H14.363H14.3424H14.3217H14.301H14.2803H14.2595H14.2387H14.2178H14.1969H14.1759H14.1549H14.1339H14.1128H14.0916H14.0704H14.0492H14.0279H14.0065H13.9852H13.9637H13.9422H13.9207H13.8991H13.8774H13.8557H13.8339H13.8121H13.7903H13.7683H13.7463H13.7243H13.7022H13.68H13.6578H13.6355H13.6131H13.5907H13.5682H13.5457H13.5231H13.5004H13.4777H13.4549H13.432H13.4091H13.3861H13.363H13.3399H13.3166H13.2934H13.27H13.2466H13.2231H13.1995H13.1758H13.1521H13.1283H13.1044H13.0805H13.0564H13.0323H13.0081H12.9839H12.9595H12.9351H12.9106H12.886H12.8613H12.8365H12.8117H12.7868H12.7617H12.7366H12.7114H12.6862H12.6608H12.6353H12.6098H12.5841H12.5584H12.5326H12.5067H12.4807H12.4546H12.4284H12.4021H12.3757H12.3492H12.3226H12.296H12.2692H12.2423H12.2153H12.1883H12.1611H12.1338H12.1064H12.0789H12.0514H12.0237H11.9959H11.968H11.94H11.9118H11.8836H11.8553H11.8268H11.7983H11.7696H11.7409H11.712H11.683H11.6539H11.6246H11.5953H11.5658H11.5363H11.5066H11.4768H11.4469H11.4168H11.3867H11.3564H11.326H11.2955H11.2648H11.2341H11.2032H11.1722H11.141H11.1098H11.0784H11.0469H11.0152H10.9835H10.9516H10.9195H10.8874H10.8551H10.8227H10.7901H10.7575H10.7246H10.6917H10.6586H10.6254H10.592H10.5586H10.5249H10.4912H10.4573H10.4232H10.389H10.3547H10.3203H10.2856H10.2509H10.216H10.181H10.1458H10.1105H10.075H10.0394H10.0036H9.9677H9.93164H9.89543H9.85908H9.82257H9.7859H9.74909H9.71213H9.67501H9.63774H9.60031H9.56273H9.52499H9.4871H9.44905H9.41084H9.37247H9.33394H9.29526H9.25641H9.2174H9.17823H9.1389C8.3035 25.8618 7.56627 25.5057 7.13851 25.0175C6.73538 24.5574 6.60519 23.9966 6.87777 23.3838C8.34362 20.0884 11.8539 17.7241 15.9999 17.7241C20.1459 17.7241 23.6562 20.0884 25.1221 23.3838Z" stroke="#155A5A" stroke-width="2"/>
<circle id="Ellipse 68" cx="16" cy="10.207" r="4.06881" stroke="#155A5A" stroke-width="2"/>
</g>
</svg>
