<svg width="32" height="34" viewBox="0 0 32 34" fill="none" xmlns="http://www.w3.org/2000/svg">
<path d="M12.2727 10.75L20.1477 10.75" stroke="#4B4B4B" stroke-width="2.25" stroke-linecap="round"/>
<path d="M12.2727 16.375L17.5227 16.375" stroke="#4B4B4B" stroke-width="2.25" stroke-linecap="round"/>
<path fill-rule="evenodd" clip-rule="evenodd" d="M16.0858 20.875H12.2727C11.6514 20.875 11.1477 21.3787 11.1477 22C11.1477 22.6213 11.6514 23.125 12.2727 23.125L15.1399 23.125C15.402 22.3367 15.7293 21.5813 16.0858 20.875Z" fill="#4B4B4B"/>
<path fill-rule="evenodd" clip-rule="evenodd" d="M12.2742 3.4375L12.1979 3.4375C11.0256 3.43745 10.0341 3.43741 9.24393 3.54364C8.40436 3.65652 7.62581 3.90757 6.99752 4.53585C6.36924 5.16414 6.11819 5.94269 6.00531 6.78226C5.89908 7.57239 5.89912 8.56392 5.89917 9.73624L5.89917 9.8125V22.9375L5.89917 23.0138C5.89912 24.1861 5.89908 25.1776 6.00531 25.9677C6.11819 26.8073 6.36924 27.5859 6.99752 28.2142C7.62581 28.8424 8.40436 29.0935 9.24393 29.2064C10.034 29.3126 11.0255 29.3126 12.1978 29.3125H12.1979L12.2742 29.3125H14.9539C14.7142 28.6009 14.5688 27.8459 14.5325 27.0625H12.2742C11.0049 27.0625 10.1662 27.0601 9.54374 26.9764C8.95367 26.8971 8.72907 26.7637 8.58851 26.6232C8.44796 26.4826 8.31458 26.258 8.23525 25.6679C8.15156 25.0455 8.14917 24.2067 8.14917 22.9375V9.8125C8.14917 8.54326 8.15156 7.70451 8.23525 7.08207C8.31458 6.49199 8.44796 6.2674 8.58851 6.12684C8.72907 5.98629 8.95366 5.85291 9.54374 5.77358C10.1662 5.68989 11.0049 5.6875 12.2742 5.6875L20.1492 5.68754C21.4184 5.68754 22.2572 5.68993 22.8796 5.77361C23.4697 5.85294 23.6943 5.98632 23.8348 6.12688L24.6303 5.33138L23.8348 6.12688C23.9754 6.26744 24.1088 6.49203 24.1881 7.0821C24.2718 7.70454 24.2742 8.5433 24.2742 9.81254V13.9873C24.4549 14.0998 24.6236 14.2333 24.7766 14.3863L24.2742 14.8887V14.889C24.7769 14.3866 24.7772 14.3869 24.7775 14.3872L24.7786 14.3882L24.7811 14.3907L24.7875 14.3972L24.8063 14.4163C24.8215 14.4316 24.8417 14.4522 24.8666 14.4779C24.9166 14.5293 24.9856 14.6012 25.0711 14.6921C25.2418 14.8737 25.479 15.1321 25.7606 15.4554C25.988 15.7165 26.2466 16.0225 26.5242 16.3669V9.81254L26.5242 9.73625V9.7362C26.5242 8.56391 26.5243 7.57241 26.418 6.7823C26.3052 5.94272 26.0541 5.16418 25.4258 4.53589C24.7975 3.9076 24.019 3.65655 23.1794 3.54368C22.3893 3.43744 21.3978 3.43749 20.2254 3.43754L20.1492 3.43754L12.2742 3.4375Z" fill="#4B4B4B"/>
<path d="M29.3641 26.6736C29.3641 26.0523 28.8604 25.5486 28.2391 25.5486C27.6177 25.5486 27.1141 26.0523 27.1141 26.6736H29.3641ZM18.4602 26.6736C18.4602 26.0523 17.9565 25.5486 17.3352 25.5486C16.7139 25.5486 16.2102 26.0523 16.2102 26.6736H18.4602ZM16.2102 26.6731C16.2102 27.2944 16.7139 27.7981 17.3352 27.7981C17.9565 27.7981 18.4602 27.2944 18.4602 26.6731H16.2102ZM22.7871 16.375L23.5826 15.5795C23.1433 15.1402 22.431 15.1402 21.9916 15.5795L22.7871 16.375ZM27.1141 26.6731C27.1141 27.2944 27.6177 27.7981 28.2391 27.7981C28.8604 27.7981 29.3641 27.2944 29.3641 26.6731H27.1141ZM27.1141 26.6736C27.1141 29.0633 25.1768 31.0005 22.7871 31.0005V33.2505C26.4195 33.2505 29.3641 30.3059 29.3641 26.6736H27.1141ZM22.7871 31.0005C20.3974 31.0005 18.4602 29.0633 18.4602 26.6736H16.2102C16.2102 30.3059 19.1548 33.2505 22.7871 33.2505V31.0005ZM18.4602 26.6731C18.4602 24.6128 19.6473 22.281 20.9861 20.3471C21.6381 19.4053 22.2922 18.6056 22.7836 18.0415C23.0288 17.76 23.232 17.5387 23.3724 17.3894C23.4426 17.3148 23.497 17.2582 23.5329 17.2212C23.5509 17.2027 23.5642 17.1891 23.5726 17.1806C23.5768 17.1763 23.5798 17.1734 23.5815 17.1717C23.5823 17.1708 23.5828 17.1703 23.583 17.1701C23.5831 17.17 23.5831 17.17 23.5831 17.1701C23.583 17.1701 23.5829 17.1702 23.5829 17.1702C23.5828 17.1703 23.5826 17.1705 22.7871 16.375C21.9916 15.5795 21.9914 15.5797 21.9912 15.5799C21.9911 15.58 21.9909 15.5802 21.9907 15.5804C21.9903 15.5808 21.9898 15.5813 21.9893 15.5819C21.9881 15.583 21.9867 15.5845 21.9849 15.5863C21.9813 15.5899 21.9765 15.5948 21.9704 15.601C21.9581 15.6134 21.9408 15.631 21.9189 15.6536C21.8749 15.6988 21.8122 15.7642 21.7333 15.8481C21.5755 16.0158 21.3529 16.2583 21.0869 16.5637C20.5561 17.1732 19.8472 18.0394 19.1362 19.0664C17.7491 21.07 16.2102 23.8872 16.2102 26.6731H18.4602ZM22.7871 16.375C21.9916 17.1705 21.9915 17.1703 21.9913 17.1702C21.9913 17.1702 21.9912 17.1701 21.9912 17.1701C21.9911 17.17 21.9911 17.17 21.9912 17.1701C21.9914 17.1703 21.992 17.1708 21.9928 17.1717C21.9945 17.1734 21.9974 17.1763 22.0016 17.1806C22.01 17.1891 22.0234 17.2027 22.0413 17.2212C22.0773 17.2582 22.1316 17.3148 22.2018 17.3894C22.3422 17.5387 22.5455 17.76 22.7906 18.0415C23.282 18.6056 23.9361 19.4053 24.5881 20.3471C25.927 22.281 27.1141 24.6128 27.1141 26.6731H29.3641C29.3641 23.8872 27.8252 21.07 26.4381 19.0664C25.7271 18.0394 25.0182 17.1732 24.4873 16.5637C24.2214 16.2583 23.9987 16.0158 23.841 15.8481C23.7621 15.7642 23.6993 15.6988 23.6554 15.6536C23.6334 15.631 23.6161 15.6134 23.6039 15.601C23.5978 15.5948 23.5929 15.5899 23.5894 15.5863C23.5876 15.5845 23.5861 15.583 23.585 15.5819C23.5844 15.5813 23.584 15.5808 23.5836 15.5804C23.5834 15.5802 23.5831 15.58 23.583 15.5799C23.5828 15.5797 23.5826 15.5795 22.7871 16.375Z" fill="#4B4B4B"/>
</svg>
