<svg width="28" height="28" viewBox="0 0 28 28" fill="none" xmlns="http://www.w3.org/2000/svg">
<g id="Chart">
<path id="Vector 8" d="M18.514 9.3623L9.48594 9.3623" stroke="#155A5A" stroke-width="2" stroke-linecap="round" stroke-linejoin="round"/>
<path id="Vector 9" d="M14 14.4268H9.48603" stroke="#155A5A" stroke-width="2" stroke-linecap="round" stroke-linejoin="round"/>
<path id="Rectangle 25" d="M16.5764 4.08606H11.5C7.72876 4.08606 5.84315 4.08606 4.67157 5.25763C3.5 6.42921 3.5 8.31482 3.5 12.0861V19.9332V20.0356C3.50002 22.0446 3.50003 23.0492 4.10878 23.308C4.71753 23.5668 5.44092 22.8698 6.88771 21.4758L7.90772 20.493L7.90773 20.4929C8.19455 20.2166 8.33797 20.0784 8.51796 20.0058C8.69796 19.9332 8.89711 19.9332 9.29542 19.9332H16.5764C20.2733 19.9332 22.1218 19.9332 23.2857 18.8037C23.3144 18.7759 23.3427 18.7476 23.3706 18.7189C24.5 17.555 24.5 15.7065 24.5 12.0096C24.5 8.31272 24.5 6.46426 23.3706 5.3004C23.3427 5.27168 23.3144 5.24338 23.2857 5.21551C22.1218 4.08606 20.2733 4.08606 16.5764 4.08606Z" stroke="#155A5A" stroke-width="2"/>
</g>
</svg>
