<svg width="18" height="9" viewBox="0 0 18 9" fill="none" xmlns="http://www.w3.org/2000/svg">
<path id="Vector 111" d="M16.3352 8H17.0852C17.0852 8.41421 16.7494 8.75 16.3352 8.75V8ZM15.5852 3.54545C15.5852 3.13124 15.921 2.79545 16.3352 2.79545C16.7494 2.79545 17.0852 3.13124 17.0852 3.54545H15.5852ZM11.77 8.75C11.3558 8.75 11.02 8.41421 11.02 8C11.02 7.58579 11.3558 7.25 11.77 7.25V8.75ZM9.11509 2.31781L8.5913 1.78102L9.11509 2.31781ZM10.5118 2.31781L11.0356 1.78101L10.5118 2.31781ZM1.85899 0.463203L5.72583 4.2363L4.67826 5.30989L0.811422 1.5368L1.85899 0.463203ZM6.07502 4.2363L8.5913 1.78102L9.63887 2.85461L7.12258 5.30989L6.07502 4.2363ZM15.5852 8V3.54545H17.0852V8H15.5852ZM16.3352 8.75H11.77V7.25H16.3352V8.75ZM11.0356 1.78101L16.859 7.4632L15.8114 8.5368L9.98806 2.85461L11.0356 1.78101ZM8.5913 1.78102C9.27108 1.11772 10.3558 1.11772 11.0356 1.78101L9.98806 2.85461C9.89095 2.75985 9.73598 2.75985 9.63887 2.85461L8.5913 1.78102ZM5.72583 4.2363C5.82294 4.33106 5.97791 4.33106 6.07502 4.2363L7.12258 5.30989C6.44281 5.97319 5.35804 5.97319 4.67826 5.30989L5.72583 4.2363Z" fill="#818181"/>
</svg>
