<svg width="30" height="30" viewBox="0 0 30 30" fill="none" xmlns="http://www.w3.org/2000/svg">
<g id="Folder_file">
<path id="Rectangle 4017" d="M5 15.25C5 13.3644 5 12.4216 5.58579 11.8358C6.17157 11.25 7.11438 11.25 9 11.25H10.8431C11.6606 11.25 12.0694 11.25 12.4369 11.4022C12.8045 11.5545 13.0935 11.8435 13.6716 12.4216L15.0784 13.8284C15.6565 14.4065 15.9455 14.6955 16.3131 14.8478C16.6806 15 17.0894 15 17.9069 15H21C22.8856 15 23.8284 15 24.4142 15.5858C25 16.1716 25 17.1144 25 19V21C25 22.8856 25 23.8284 24.4142 24.4142C23.8284 25 22.8856 25 21 25H9C7.11438 25 6.17157 25 5.58579 24.4142C5 23.8284 5 22.8856 5 21V15.25Z" stroke="#155A5A" stroke-width="2"/>
<path id="Vector 232" d="M22.5 15V9C22.5 7.11438 22.5 6.17157 21.9142 5.58579C21.3284 5 20.3856 5 18.5 5H11.5C9.61438 5 8.67157 5 8.08579 5.58579C7.5 6.17157 7.5 7.11438 7.5 9V11.25" stroke="#155A5A" stroke-width="2"/>
</g>
</svg>
