<svg width="18" height="9" viewBox="0 0 18 9" fill="none" xmlns="http://www.w3.org/2000/svg">
<path id="Vector 111" d="M16.3352 1H17.0852C17.0852 0.585786 16.7494 0.25 16.3352 0.25V1ZM15.5852 5.45455C15.5852 5.86876 15.921 6.20455 16.3352 6.20455C16.7494 6.20455 17.0852 5.86876 17.0852 5.45455H15.5852ZM11.77 0.25C11.3558 0.25 11.02 0.585786 11.02 1C11.02 1.41421 11.3558 1.75 11.77 1.75V0.25ZM9.11509 6.68219L8.5913 7.21898L9.11509 6.68219ZM10.5118 6.68219L11.0356 7.21899L10.5118 6.68219ZM1.85899 8.5368L5.72583 4.7637L4.67826 3.69011L0.811422 7.4632L1.85899 8.5368ZM6.07502 4.7637L8.5913 7.21898L9.63887 6.14539L7.12258 3.69011L6.07502 4.7637ZM15.5852 1V5.45455H17.0852V1H15.5852ZM16.3352 0.25H11.77V1.75H16.3352V0.25ZM11.0356 7.21899L16.859 1.5368L15.8114 0.463203L9.98806 6.14539L11.0356 7.21899ZM8.5913 7.21898C9.27108 7.88228 10.3558 7.88228 11.0356 7.21899L9.98806 6.14539C9.89095 6.24015 9.73598 6.24015 9.63887 6.14539L8.5913 7.21898ZM5.72583 4.7637C5.82294 4.66894 5.97791 4.66894 6.07502 4.7637L7.12258 3.69011C6.44281 3.02681 5.35804 3.02681 4.67826 3.69011L5.72583 4.7637Z" fill="#818181"/>
</svg>
