<svg width="33" height="32" viewBox="0 0 33 32" fill="none" xmlns="http://www.w3.org/2000/svg">
<path d="M6.54838 9.05607C4.81451 11.4998 4.05761 14.5038 4.42649 17.4773C4.79538 20.4509 6.26336 23.1789 8.5418 25.1248C10.8202 27.0708 13.7443 28.094 16.7389 27.9932C19.7336 27.8924 22.5822 26.6749 24.7246 24.5801C26.867 22.4853 28.1482 19.6648 28.3163 16.6732C28.4844 13.6815 27.5272 10.7353 25.6329 8.41366C23.7386 6.09206 21.0444 4.56313 18.0798 4.1275C15.1153 3.69187 12.0951 4.38107 9.61301 6.05957L10.7423 7.72953C12.8074 6.33301 15.3203 5.7596 17.7868 6.12204C20.2532 6.48449 22.4949 7.75656 24.0709 9.68814C25.647 11.6197 26.4434 14.071 26.3035 16.5601C26.1637 19.0491 25.0977 21.3958 23.3152 23.1387C21.5327 24.8816 19.1627 25.8945 16.6711 25.9784C14.1795 26.0623 11.7467 25.211 9.85106 23.5919C7.9554 21.9728 6.73403 19.7032 6.42711 17.2291C6.1202 14.7551 6.74995 12.2558 8.19254 10.2226L6.54838 9.05607Z" fill="#155A5A"/>
<rect x="12.3352" y="12" width="8" height="8" rx="4" stroke="#155A5A" stroke-width="2"/>
<rect x="6.33521" y="6" width="4" height="4" rx="2" stroke="#155A5A" stroke-width="2"/>
</svg>
